<svg xmlns="http://www.w3.org/2000/svg" viewBox="0 0 2534.7 814.28"><defs><style>.cls-1{fill:#dfe6ec;}.cls-2{fill:#fca214;}</style></defs><g id="Layer_2" data-name="Layer 2"><g id="Layer_1-2" data-name="Layer 1"><rect class="cls-1" x="1026.36" width="71.68" height="71.68" rx="12"/><rect class="cls-1" x="949.28" y="76.95" width="71.68" height="71.68" rx="12"/><rect class="cls-1" x="1103.44" y="76.95" width="71.68" height="71.68" rx="12"/><rect class="cls-1" x="949.28" y="153.9" width="71.68" height="71.68" rx="12"/><rect class="cls-1" x="1026.36" y="153.9" width="71.68" height="71.68" rx="12"/><rect class="cls-1" x="1103.44" y="153.9" width="71.68" height="71.68" rx="12"/><rect class="cls-1" x="1180.52" y="153.9" width="71.68" height="71.68" rx="12"/><rect class="cls-1" x="872.2" y="153.9" width="71.68" height="71.68" rx="12"/><rect class="cls-1" x="1180.52" y="230.85" width="71.68" height="71.68" rx="12"/><rect class="cls-1" x="872.2" y="230.85" width="71.68" height="71.68" rx="12"/><rect class="cls-1" x="1180.52" y="307.8" width="71.68" height="71.68" rx="12"/><rect class="cls-1" x="872.2" y="307.8" width="71.68" height="71.68" rx="12"/><rect class="cls-1" x="1376.78" width="71.68" height="71.68" rx="12"/><rect class="cls-1" x="1453.86" width="71.68" height="71.68" rx="12"/><rect class="cls-1" x="1530.94" width="71.68" height="71.68" rx="12"/><rect class="cls-1" x="1608.02" width="71.68" height="71.68" rx="12"/><rect class="cls-1" x="1299.7" width="71.68" height="71.68" rx="12"/><rect class="cls-1" x="1453.86" y="76.95" width="71.68" height="71.68" rx="12"/><rect class="cls-1" x="1453.86" y="153.9" width="71.68" height="71.68" rx="12"/><rect class="cls-1" x="1453.86" y="230.85" width="71.68" height="71.68" rx="12"/><rect class="cls-1" x="1453.86" y="307.8" width="71.68" height="71.68" rx="12"/><rect class="cls-1" x="1804.28" width="71.68" height="71.68" rx="12"/><rect class="cls-1" x="1881.36" width="71.68" height="71.68" rx="12"/><rect class="cls-1" x="1958.44" width="71.68" height="71.68" rx="12"/><rect class="cls-1" x="2035.52" width="71.68" height="71.68" rx="12"/><rect class="cls-1" x="1727.2" width="71.68" height="71.68" rx="12"/><rect class="cls-1" x="1727.2" y="76.95" width="71.68" height="71.68" rx="12"/><rect class="cls-1" x="1727.2" y="153.9" width="71.68" height="71.68" rx="12"/><rect class="cls-1" x="1727.2" y="230.85" width="71.68" height="71.68" rx="12"/><rect class="cls-1" x="1804.28" y="307.8" width="71.68" height="71.68" rx="12"/><rect class="cls-1" x="1881.36" y="307.8" width="71.68" height="71.68" rx="12"/><rect class="cls-1" x="1958.44" y="307.8" width="71.68" height="71.68" rx="12"/><rect class="cls-1" x="2035.52" y="307.8" width="71.68" height="71.68" rx="12"/><rect class="cls-1" x="1727.2" y="307.8" width="71.68" height="71.68" rx="12"/><rect class="cls-1" x="2463.02" width="71.68" height="71.68" rx="12"/><rect class="cls-1" x="2154.7" width="71.68" height="71.68" rx="12"/><rect class="cls-1" x="2463.02" y="76.95" width="71.68" height="71.68" rx="12"/><rect class="cls-1" x="2154.7" y="76.95" width="71.68" height="71.68" rx="12"/><rect class="cls-1" x="2231.78" y="153.9" width="71.68" height="71.68" rx="12"/><rect class="cls-1" x="2308.86" y="153.9" width="71.68" height="71.68" rx="12"/><rect class="cls-1" x="2385.94" y="153.9" width="71.68" height="71.68" rx="12"/><rect class="cls-1" x="2463.02" y="153.9" width="71.68" height="71.68" rx="12"/><rect class="cls-1" x="2154.7" y="153.9" width="71.68" height="71.68" rx="12"/><rect class="cls-1" x="2463.02" y="230.85" width="71.68" height="71.68" rx="12"/><rect class="cls-1" x="2154.7" y="230.85" width="71.68" height="71.68" rx="12"/><rect class="cls-1" x="2463.02" y="307.8" width="71.68" height="71.68" rx="12"/><rect class="cls-1" x="2154.7" y="307.8" width="71.68" height="71.68" rx="12"/><rect class="cls-2" x="753.02" width="71.68" height="71.68" rx="12"/><rect class="cls-2" x="444.7" width="71.68" height="71.68" rx="12"/><rect class="cls-2" x="521.78" y="76.95" width="71.68" height="71.68" rx="12"/><rect class="cls-2" x="675.94" y="76.95" width="71.68" height="71.68" rx="12"/><rect class="cls-2" x="753.02" y="76.95" width="71.68" height="71.68" rx="12"/><rect class="cls-2" x="444.7" y="76.95" width="71.68" height="71.68" rx="12"/><rect class="cls-2" x="598.86" y="153.9" width="71.68" height="71.68" rx="12"/><rect class="cls-2" x="753.02" y="153.9" width="71.68" height="71.68" rx="12"/><rect class="cls-2" x="444.7" y="153.9" width="71.68" height="71.68" rx="12"/><rect class="cls-2" x="753.02" y="230.85" width="71.68" height="71.68" rx="12"/><rect class="cls-2" x="444.7" y="230.85" width="71.68" height="71.68" rx="12"/><rect class="cls-2" x="753.02" y="307.8" width="71.68" height="71.68" rx="12"/><rect class="cls-2" x="444.7" y="307.8" width="71.68" height="71.68" rx="12"/><rect class="cls-2" x="308.32" y="434.8" width="71.68" height="71.68" rx="12"/><rect class="cls-2" y="434.8" width="71.68" height="71.68" rx="12"/><rect class="cls-2" x="77.08" y="511.75" width="71.68" height="71.68" rx="12"/><rect class="cls-2" x="231.24" y="511.75" width="71.68" height="71.68" rx="12"/><rect class="cls-2" x="308.32" y="511.75" width="71.68" height="71.68" rx="12"/><rect class="cls-2" y="511.75" width="71.68" height="71.68" rx="12"/><rect class="cls-2" x="154.16" y="588.7" width="71.68" height="71.68" rx="12"/><rect class="cls-2" x="308.32" y="588.7" width="71.68" height="71.68" rx="12"/><rect class="cls-2" y="588.7" width="71.68" height="71.68" rx="12"/><rect class="cls-2" x="308.32" y="665.65" width="71.68" height="71.68" rx="12"/><rect class="cls-2" y="665.65" width="71.68" height="71.68" rx="12"/><rect class="cls-2" x="308.32" y="742.6" width="71.68" height="71.68" rx="12"/><rect class="cls-2" y="742.6" width="71.68" height="71.68" rx="12"/><rect class="cls-1" x="508.02" y="434.8" width="71.68" height="71.68" rx="12"/><rect class="cls-1" x="585.1" y="434.8" width="71.68" height="71.68" rx="12"/><rect class="cls-1" x="662.18" y="434.8" width="71.68" height="71.68" rx="12"/><rect class="cls-1" x="739.26" y="434.8" width="71.68" height="71.68" rx="12"/><rect class="cls-1" x="430.94" y="434.8" width="71.68" height="71.68" rx="12"/><rect class="cls-1" x="430.94" y="511.75" width="71.68" height="71.68" rx="12"/><rect class="cls-1" x="508.02" y="588.7" width="71.68" height="71.68" rx="12"/><rect class="cls-1" x="585.1" y="588.7" width="71.68" height="71.68" rx="12"/><rect class="cls-1" x="662.18" y="588.7" width="71.68" height="71.68" rx="12"/><rect class="cls-1" x="430.94" y="588.7" width="71.68" height="71.68" rx="12"/><rect class="cls-1" x="430.94" y="665.65" width="71.68" height="71.68" rx="12"/><rect class="cls-1" x="508.02" y="742.6" width="71.68" height="71.68" rx="12"/><rect class="cls-1" x="585.1" y="742.6" width="71.68" height="71.68" rx="12"/><rect class="cls-1" x="662.18" y="742.6" width="71.68" height="71.68" rx="12"/><rect class="cls-1" x="739.26" y="742.6" width="71.68" height="71.68" rx="12"/><rect class="cls-1" x="430.94" y="742.6" width="71.68" height="71.68" rx="12"/><rect class="cls-1" x="1446.98" y="434.8" width="71.68" height="71.68" rx="12"/><rect class="cls-1" x="1369.9" y="511.75" width="71.68" height="71.68" rx="12"/><rect class="cls-1" x="1524.06" y="511.75" width="71.68" height="71.68" rx="12"/><rect class="cls-1" x="1601.14" y="588.7" width="71.68" height="71.68" rx="12"/><rect class="cls-1" x="1292.82" y="588.7" width="71.68" height="71.68" rx="12"/><rect class="cls-1" x="1369.9" y="665.65" width="71.68" height="71.68" rx="12"/><rect class="cls-1" x="1524.06" y="665.65" width="71.68" height="71.68" rx="12"/><rect class="cls-1" x="1446.98" y="742.6" width="71.68" height="71.68" rx="12"/><rect class="cls-1" x="1800.84" y="434.8" width="71.68" height="71.68" rx="12"/><rect class="cls-1" x="1877.92" y="434.8" width="71.68" height="71.68" rx="12"/><rect class="cls-1" x="1955" y="434.8" width="71.68" height="71.68" rx="12"/><rect class="cls-1" x="2032.08" y="434.8" width="71.68" height="71.68" rx="12"/><rect class="cls-1" x="1723.76" y="434.8" width="71.68" height="71.68" rx="12"/><rect class="cls-1" x="2032.08" y="511.75" width="71.68" height="71.68" rx="12"/><rect class="cls-1" x="1723.76" y="511.75" width="71.68" height="71.68" rx="12"/><rect class="cls-1" x="1800.84" y="588.7" width="71.68" height="71.68" rx="12"/><rect class="cls-1" x="1877.92" y="588.7" width="71.68" height="71.68" rx="12"/><rect class="cls-1" x="1955" y="588.7" width="71.68" height="71.68" rx="12"/><rect class="cls-1" x="2032.08" y="588.7" width="71.68" height="71.68" rx="12"/><rect class="cls-1" x="1723.76" y="588.7" width="71.68" height="71.68" rx="12"/><rect class="cls-1" x="1955" y="665.65" width="71.68" height="71.68" rx="12"/><rect class="cls-1" x="1723.76" y="665.65" width="71.68" height="71.68" rx="12"/><rect class="cls-1" x="2032.08" y="742.6" width="71.68" height="71.68" rx="12"/><rect class="cls-1" x="1723.76" y="742.6" width="71.68" height="71.68" rx="12"/><rect class="cls-1" x="2463.02" y="434.8" width="71.68" height="71.68" rx="12"/><rect class="cls-1" x="2154.7" y="434.8" width="71.68" height="71.68" rx="12"/><rect class="cls-1" x="2231.78" y="511.75" width="71.68" height="71.68" rx="12"/><rect class="cls-1" x="2385.94" y="511.75" width="71.68" height="71.68" rx="12"/><rect class="cls-1" x="2308.86" y="588.7" width="71.68" height="71.68" rx="12"/><rect class="cls-1" x="2308.86" y="665.65" width="71.68" height="71.68" rx="12"/><rect class="cls-1" x="2308.86" y="742.6" width="71.68" height="71.68" rx="12"/><rect class="cls-2" x="1170.2" y="434.8" width="71.68" height="71.68" rx="12"/><rect class="cls-2" x="861.88" y="434.8" width="71.68" height="71.68" rx="12"/><rect class="cls-2" x="938.96" y="511.75" width="71.68" height="71.68" rx="12"/><rect class="cls-2" x="1093.12" y="511.75" width="71.68" height="71.68" rx="12"/><rect class="cls-2" x="1170.2" y="511.75" width="71.68" height="71.68" rx="12"/><rect class="cls-2" x="861.88" y="511.75" width="71.68" height="71.68" rx="12"/><rect class="cls-2" x="1016.04" y="588.7" width="71.68" height="71.68" rx="12"/><rect class="cls-2" x="1170.2" y="588.7" width="71.68" height="71.68" rx="12"/><rect class="cls-2" x="861.88" y="588.7" width="71.68" height="71.68" rx="12"/><rect class="cls-2" x="1170.2" y="665.65" width="71.68" height="71.68" rx="12"/><rect class="cls-2" x="861.88" y="665.65" width="71.68" height="71.68" rx="12"/><rect class="cls-2" x="1170.2" y="742.6" width="71.68" height="71.68" rx="12"/><rect class="cls-2" x="861.88" y="742.6" width="71.68" height="71.68" rx="12"/></g></g></svg>